<svg xmlns="http://www.w3.org/2000/svg" xmlns:xlink="http://www.w3.org/1999/xlink" width="320" zoomAndPan="magnify" viewBox="0 0 240 89.999999" height="120" preserveAspectRatio="xMidYMid meet" version="1.0"><defs><g/><clipPath id="182f1cbdbb"><path d="M 16 2 L 87.785156 2 L 87.785156 90 L 16 90 Z M 16 2 " clip-rule="nonzero"/></clipPath><clipPath id="b91e896c75"><path d="M 12.785156 0 L 86 0 L 86 42 L 12.785156 42 Z M 12.785156 0 " clip-rule="nonzero"/></clipPath></defs><g clip-path="url(#182f1cbdbb)"><path fill="#000000" d="M 76.222656 29.753906 L 88.035156 2.570312 L 35.710938 25.710938 L 39.644531 20.261719 L 27.21875 24.375 L 16.132812 42.628906 L 45.019531 33.511719 L 44.902344 33.546875 L 33.058594 67.152344 L 44.644531 90 L 64.269531 90 L 67.207031 78.785156 L 71.082031 80.386719 L 64.507812 71.257812 L 57.746094 76.867188 L 48.804688 61 L 56.78125 29.800781 L 65.464844 27.066406 L 63.0625 33.015625 Z M 76.222656 29.753906 " fill-opacity="1" fill-rule="nonzero"/></g><path fill="#ffffff" d="M 73.367188 27.683594 L 85.179688 0.496094 L 32.855469 23.640625 L 36.789062 18.1875 L 24.363281 22.304688 L 13.277344 40.554688 L 42.167969 31.441406 L 42.046875 31.476562 L 30.203125 65.082031 L 41.789062 87.929688 L 61.414062 87.929688 L 64.351562 76.710938 L 68.226562 78.3125 L 61.652344 69.1875 L 54.894531 74.796875 L 45.949219 58.929688 L 53.925781 27.726562 L 62.609375 24.992188 L 60.207031 30.953125 Z M 73.367188 27.683594 " fill-opacity="1" fill-rule="nonzero"/><g clip-path="url(#b91e896c75)"><path fill="#000000" d="M 13.277344 41.015625 C 13.140625 41.015625 13 40.953125 12.917969 40.84375 C 12.796875 40.695312 12.789062 40.484375 12.890625 40.316406 L 23.976562 22.066406 C 24.035156 21.972656 24.125 21.898438 24.226562 21.871094 L 36.640625 17.753906 C 36.835938 17.691406 37.035156 17.753906 37.15625 17.921875 C 37.277344 18.078125 37.277344 18.296875 37.15625 18.464844 L 34.21875 22.535156 L 84.996094 0.0742188 C 85.171875 0 85.375 0.0351562 85.503906 0.164062 C 85.640625 0.304688 85.679688 0.507812 85.605469 0.671875 L 73.789062 27.867188 C 73.734375 27.996094 73.613281 28.097656 73.476562 28.132812 L 60.316406 31.402344 C 60.152344 31.449219 59.976562 31.382812 59.855469 31.253906 C 59.746094 31.125 59.710938 30.941406 59.773438 30.785156 L 61.808594 25.738281 L 13.414062 41 C 13.371094 41.007812 13.324219 41.015625 13.277344 41.015625 Z M 24.679688 22.691406 L 14.308594 39.746094 L 62.472656 24.550781 C 62.636719 24.496094 62.832031 24.550781 62.949219 24.679688 C 63.070312 24.808594 63.105469 25.003906 63.042969 25.167969 L 60.980469 30.289062 L 73.042969 27.296875 L 84.289062 1.398438 L 33.039062 24.0625 C 32.847656 24.144531 32.625 24.089844 32.496094 23.933594 C 32.367188 23.769531 32.359375 23.546875 32.476562 23.371094 L 35.574219 19.082031 Z M 24.679688 22.691406 " fill-opacity="1" fill-rule="nonzero"/></g><path fill="#000000" d="M 61.414062 88.386719 L 41.789062 88.386719 C 41.613281 88.386719 41.457031 88.289062 41.375 88.140625 L 29.789062 65.292969 C 29.734375 65.179688 29.726562 65.050781 29.761719 64.933594 L 41.605469 31.328125 C 41.6875 31.089844 41.953125 30.960938 42.195312 31.042969 C 42.433594 31.125 42.5625 31.394531 42.480469 31.632812 L 30.699219 65.050781 L 42.066406 87.46875 L 61.054688 87.46875 L 63.898438 76.601562 C 63.9375 76.472656 64.019531 76.363281 64.140625 76.304688 C 64.257812 76.25 64.398438 76.242188 64.515625 76.296875 L 66.890625 77.28125 L 61.550781 69.867188 L 55.167969 75.164062 C 55.066406 75.246094 54.929688 75.285156 54.792969 75.265625 C 54.652344 75.238281 54.542969 75.15625 54.480469 75.035156 L 45.546875 59.160156 C 45.492188 59.058594 45.472656 58.9375 45.5 58.816406 L 53.476562 27.617188 C 53.539062 27.371094 53.789062 27.222656 54.035156 27.285156 C 54.285156 27.351562 54.433594 27.597656 54.367188 27.847656 L 46.4375 58.875 L 55.023438 74.097656 L 61.359375 68.847656 C 61.457031 68.765625 61.589844 68.726562 61.707031 68.746094 C 61.835938 68.765625 61.945312 68.828125 62.019531 68.929688 L 68.585938 78.054688 C 68.707031 78.222656 68.699219 78.453125 68.578125 78.609375 C 68.449219 78.773438 68.226562 78.828125 68.042969 78.746094 L 64.664062 77.335938 L 61.863281 88.039062 C 61.808594 88.242188 61.625 88.386719 61.414062 88.386719 Z M 61.414062 88.386719 " fill-opacity="1" fill-rule="nonzero"/><path fill="#000000" d="M 55.316406 74.601562 L 58.519531 82.753906 L 54.480469 74.988281 Z M 55.316406 74.601562 " fill-opacity="1" fill-rule="nonzero"/><path fill="#000000" d="M 62.433594 24.570312 L 70.789062 21.539062 L 62.792969 25.417969 Z M 62.433594 24.570312 " fill-opacity="1" fill-rule="nonzero"/><g fill="#ffffff" fill-opacity="1"><g transform="translate(88.044825, 85.561028)"><g><path d="M 61.890625 -77.203125 L 61.890625 -64.359375 L 39.609375 -64.359375 L 39.609375 0 L 24.390625 0 L 24.390625 -64.359375 L 2.109375 -64.359375 L 2.109375 -77.203125 Z M 61.890625 -77.203125 "/></g></g></g><g fill="#ffffff" fill-opacity="1"><g transform="translate(152.030192, 85.561028)"><g><path d="M 42.1875 1.109375 C 35.070312 1.109375 28.804688 -0.367188 23.390625 -3.328125 C 17.972656 -6.285156 13.734375 -10.726562 10.671875 -16.65625 C 7.609375 -22.59375 6.078125 -29.90625 6.078125 -38.59375 C 6.078125 -47.289062 7.609375 -54.601562 10.671875 -60.53125 C 13.734375 -66.46875 17.972656 -70.914062 23.390625 -73.875 C 28.804688 -76.832031 35.070312 -78.3125 42.1875 -78.3125 C 49.613281 -78.3125 55.921875 -76.859375 61.109375 -73.953125 C 66.304688 -71.046875 70.015625 -66.617188 72.234375 -60.671875 L 61.09375 -53.859375 L 59.765625 -53.90625 C 58.117188 -57.925781 55.878906 -60.804688 53.046875 -62.546875 C 50.210938 -64.285156 46.59375 -65.15625 42.1875 -65.15625 C 35.78125 -65.15625 30.78125 -63.035156 27.1875 -58.796875 C 23.601562 -54.554688 21.8125 -47.820312 21.8125 -38.59375 C 21.8125 -29.40625 23.601562 -22.691406 27.1875 -18.453125 C 30.78125 -14.210938 35.78125 -12.09375 42.1875 -12.09375 C 52.21875 -12.09375 58.363281 -16.96875 60.625 -26.71875 L 61.9375 -26.71875 L 73.1875 -20.859375 C 71.070312 -13.535156 67.460938 -8.039062 62.359375 -4.375 C 57.253906 -0.71875 50.53125 1.109375 42.1875 1.109375 Z M 42.1875 1.109375 "/></g></g></g></svg>